<svg xmlns="http://www.w3.org/2000/svg" xmlns:xlink="http://www.w3.org/1999/xlink" version="1.0" x="0" y="0" width="2400" height="2400" viewBox="126.54800155639649 81.54800155639649 86.90399688720703 86.90399688720703" preserveAspectRatio="xMidYMid meet" color-interpolation-filters="sRGB"><g><defs><linearGradient id="92" x1="0%" y1="0%" x2="100%" y2="0%"><stop offset="0%" stop-color="#fa71cd"></stop> <stop offset="100%" stop-color="#9b59b6"></stop></linearGradient><linearGradient id="93" x1="0%" y1="0%" x2="100%" y2="0%"><stop offset="0%" stop-color="#f9d423"></stop> <stop offset="100%" stop-color="#f83600"></stop></linearGradient><linearGradient id="94" x1="0%" y1="0%" x2="100%" y2="0%"><stop offset="0%" stop-color="#0064d2"></stop> <stop offset="100%" stop-color="#1cb0f6"></stop></linearGradient><linearGradient id="95" x1="0%" y1="0%" x2="100%" y2="0%"><stop offset="0%" stop-color="#f00978"></stop> <stop offset="100%" stop-color="#3f51b1"></stop></linearGradient><linearGradient id="96" x1="0%" y1="0%" x2="100%" y2="0%"><stop offset="0%" stop-color="#7873f5"></stop> <stop offset="100%" stop-color="#ec77ab"></stop></linearGradient><linearGradient id="97" x1="0%" y1="0%" x2="100%" y2="0%"><stop offset="0%" stop-color="#f9d423"></stop> <stop offset="100%" stop-color="#e14fad"></stop></linearGradient><linearGradient id="98" x1="0%" y1="0%" x2="100%" y2="0%"><stop offset="0%" stop-color="#009efd"></stop> <stop offset="100%" stop-color="#2af598"></stop></linearGradient><linearGradient id="99" x1="0%" y1="0%" x2="100%" y2="0%"><stop offset="0%" stop-color="#ffcc00"></stop> <stop offset="100%" stop-color="#00b140"></stop></linearGradient><linearGradient id="100" x1="0%" y1="0%" x2="100%" y2="0%"><stop offset="0%" stop-color="#d51007"></stop> <stop offset="100%" stop-color="#ff8177"></stop></linearGradient><linearGradient id="102" x1="0%" y1="0%" x2="100%" y2="0%"><stop offset="0%" stop-color="#a2b6df"></stop> <stop offset="100%" stop-color="#0c3483"></stop></linearGradient><linearGradient id="103" x1="0%" y1="0%" x2="100%" y2="0%"><stop offset="0%" stop-color="#7ac5d8"></stop> <stop offset="100%" stop-color="#eea2a2"></stop></linearGradient><linearGradient id="104" x1="0%" y1="0%" x2="100%" y2="0%"><stop offset="0%" stop-color="#00ecbc"></stop> <stop offset="100%" stop-color="#007adf"></stop></linearGradient><linearGradient id="105" x1="0%" y1="0%" x2="100%" y2="0%"><stop offset="0%" stop-color="#b88746"></stop> <stop offset="100%" stop-color="#fdf5a6"></stop></linearGradient></defs><g fill="#1A1A1A" class="iconsvg-imagesvg" transform="translate(134.5,89.5)" mask="url(#3c01101a-fdb2-4617-9e9a-9d4664d75baa)"><rect fill="#ffffff" fill-opacity="0" stroke-width="2" x="0" y="0" width="71" height="71" class="image-rect"></rect> <svg viewBox="0 0 60 60" x="0" y="0" width="71" height="71" class="image-svg-svg bn" style="overflow: visible;"><g hollow-target="iconBnOutline"><g mask="url(#22b00dda-7178-4530-933a-7acf97a2c400)"><svg xmlns="http://www.w3.org/2000/svg" xmlns:xlink="http://www.w3.org/1999/xlink" fill="#000000" version="1.1" x="0" y="0" viewBox="11.361 11.361 77.278 77.278" enable-background="new 0 0 100 100" xml:space="preserve" style="overflow: visible;" width="60" height="60" filtersec="colorsf4459931417" filter="url(#3z8KA40uZSAekErcotL51)"><g transform="scale(1, 1) skewX(0)"><path d="M50,11.361L50,11.361C28.66,11.361,11.361,28.66,11.361,50v0c0,21.34,17.299,38.639,38.639,38.639h0  c21.34,0,38.639-17.299,38.639-38.639v0C88.639,28.66,71.34,11.361,50,11.361z M50,82.279c-17.799,0-32.279-14.48-32.279-32.279  c0-17.799,14.48-32.279,32.279-32.279c17.799,0,32.279,14.48,32.279,32.279C82.279,67.799,67.799,82.279,50,82.279z"></path></g><defs><filter id="3z8KA40uZSAekErcotL51"><feColorMatrix type="matrix" values="0 0 0 0 0.1015625  0 0 0 0 0.1015625  0 0 0 0 0.1015625  0 0 0 1 0"></feColorMatrix></filter></defs></svg></g> <g filter="url(#colors7522845276)"><svg xmlns="http://www.w3.org/2000/svg" xmlns:xlink="http://www.w3.org/1999/xlink" viewBox="0 0 44.29591444672131 52.3584375" width="42" height="42" x="9" y="9" class="image-svg-letter"><path transform="translate(11.167008196721312 40.36875)" d="M32.70-17.30L32.70-17.30Q32.70-17.30 32.73-17.30L32.73-17.30Q32.87-17.30 32.98-17.28Q33.08-17.26 33.12-17.17Q33.15-17.09 33.08-16.88L33.08-16.88Q32.63-15.75 31.80-14.27Q30.97-12.80 29.83-11.34Q28.69-9.88 27.33-8.79Q25.98-7.70 24.38-7.38Q22.78-7.07 21.09-7.89Q19.41-8.72 17.54-11.04L17.54-11.04Q17.47-10.27 17.23-9.49L17.23-9.49Q17.05-9.04 16.95-8.68L16.95-8.68Q16.80-8.09 16.66-7.49L16.66-7.49Q15.89-4.43 15.08-1.41Q14.27 1.62 13.08 4.50L13.08 4.50Q12.59 5.77 12.01 6.96Q11.43 8.16 10.72 9.28L10.72 9.28Q10.05 10.37 9.04 11.18L9.04 11.18Q7.77 12.02 6.29 11.99Q4.82 11.95 3.53 11.14Q2.25 10.34 1.51 8.89L1.51 8.89Q0.25 6.15-0.53 3.39Q-1.30 0.63-1.93-2.14L-1.93-2.14Q-1.97-2.21-1.93-2.29L-1.93-2.29Q-2.07-2.78-2.25-3.27L-2.25-3.27Q-4.01-10.93-5.92-18.58Q-7.84-26.23-10.16-33.89L-10.16-33.89Q-10.48-34.91-10.72-35.89L-10.72-35.89Q-10.93-36.46-11.11-36.98L-11.11-36.98Q-11.46-38.43-9.67-38.50L-9.67-38.50Q-7.84-38.57-7.03-37.16L-7.03-37.16Q-6.36-36-5.84-34.77L-5.84-34.77Q-3.73-29.99-2.21-25.19Q-0.70-20.39 0.49-15.61L0.49-15.61Q0.91-14.10 1.30-12.59L1.30-12.59Q2.57-8.05 3.60-3.53Q4.64 0.98 5.63 5.48L5.63 5.48Q5.66 5.77 5.73 6.05L5.73 6.05Q6.15 8.16 6.84 8.35Q7.52 8.54 8.21 7.28Q8.89 6.01 9.69 3.76Q10.48 1.51 11.27-1.27Q12.06-4.04 12.76-6.89Q13.46-9.74 13.99-12.20L13.99-12.20Q14.59-14.77 15.01-16.38L15.01-16.38Q15.19-17.19 14.91-18.07L14.91-18.07Q14.91-18.28 14.77-18.53L14.77-18.53Q13.89-23.03 13.61-27.42Q13.32-31.82 14.10-36.04L14.10-36.04Q13.99-36.07 14.10-36.11L14.10-36.11Q14.20-36.91 14.41-37.69Q14.63-38.46 15.12-39.13L15.12-39.13Q16.38-40.75 18.95-40.25L18.95-40.25Q21.09-39.83 22.01-37.48L22.01-37.48Q22.78-35.33 22.38-31.97Q21.97-28.62 21.11-25.24Q20.25-21.87 19.55-19.65L19.55-19.65Q19.44-19.34 19.41-19.05L19.41-19.05Q18.95-17.44 19.35-15.06Q19.76-12.69 21.02-10.93L21.02-10.93Q22.08-9.56 23.34-9.35Q24.61-9.14 25.80-9.63Q27-10.13 27.88-10.90Q28.76-11.67 29.14-12.27L29.14-12.27Q29.92-13.50 30.45-14.27L30.45-14.27Q30.94-14.84 31.29-15.43Q31.64-16.03 31.99-16.88L31.99-16.88Q32.13-17.19 32.31-17.26Q32.48-17.33 32.70-17.30ZM18.32-38.36L18.32-38.36Q17.54-38.74 17.12-37.90Q16.70-37.05 16.56-35.42Q16.42-33.79 16.44-31.83Q16.45-29.88 16.56-28.04Q16.66-26.19 16.80-24.93L16.80-24.93Q17.89-26.61 18.56-29.29Q19.23-31.96 19.23-34.51Q19.23-37.05 18.32-38.36Z"></path></svg></g></g><mask id="22b00dda-7178-4530-933a-7acf97a2c400"><g fill="white"><svg xmlns="http://www.w3.org/2000/svg" xmlns:xlink="http://www.w3.org/1999/xlink" version="1.1" x="0" y="0" viewBox="11.361 11.361 77.278 77.278" enable-background="new 0 0 100 100" xml:space="preserve" style="overflow: visible;" width="60" height="60" filtersec="colorsf4459931417"><g transform="scale(1, 1) skewX(0)"><path d="M50,11.361L50,11.361C28.66,11.361,11.361,28.66,11.361,50v0c0,21.34,17.299,38.639,38.639,38.639h0  c21.34,0,38.639-17.299,38.639-38.639v0C88.639,28.66,71.34,11.361,50,11.361z M50,82.279c-17.799,0-32.279-14.48-32.279-32.279  c0-17.799,14.48-32.279,32.279-32.279c17.799,0,32.279,14.48,32.279,32.279C82.279,67.799,67.799,82.279,50,82.279z"></path></g><defs></defs></svg></g> <g fill="black" filter="url(#05230914-3f29-4800-a83c-f5d0ce5b5e1a)"><svg xmlns="http://www.w3.org/2000/svg" xmlns:xlink="http://www.w3.org/1999/xlink" viewBox="0 0 44.29591444672131 52.3584375" width="42" height="42" x="9" y="9" class="image-svg-letter"><path transform="translate(11.167008196721312 40.36875)" d="M32.70-17.30L32.70-17.30Q32.70-17.30 32.73-17.30L32.73-17.30Q32.87-17.30 32.98-17.28Q33.08-17.26 33.12-17.17Q33.15-17.09 33.08-16.88L33.08-16.88Q32.63-15.75 31.80-14.27Q30.97-12.80 29.83-11.34Q28.69-9.88 27.33-8.79Q25.98-7.70 24.38-7.38Q22.78-7.07 21.09-7.89Q19.41-8.72 17.54-11.04L17.54-11.04Q17.47-10.27 17.23-9.49L17.23-9.49Q17.05-9.04 16.95-8.68L16.95-8.68Q16.80-8.09 16.66-7.49L16.66-7.49Q15.89-4.43 15.08-1.41Q14.27 1.62 13.08 4.50L13.08 4.50Q12.59 5.77 12.01 6.96Q11.43 8.16 10.72 9.28L10.72 9.28Q10.05 10.37 9.04 11.18L9.04 11.18Q7.77 12.02 6.29 11.99Q4.82 11.95 3.53 11.14Q2.25 10.34 1.51 8.89L1.51 8.89Q0.25 6.15-0.53 3.39Q-1.30 0.63-1.93-2.14L-1.93-2.14Q-1.97-2.21-1.93-2.29L-1.93-2.29Q-2.07-2.78-2.25-3.27L-2.25-3.27Q-4.01-10.93-5.92-18.58Q-7.84-26.23-10.16-33.89L-10.16-33.89Q-10.48-34.91-10.72-35.89L-10.72-35.89Q-10.93-36.46-11.11-36.98L-11.11-36.98Q-11.46-38.43-9.67-38.50L-9.67-38.50Q-7.84-38.57-7.03-37.16L-7.03-37.16Q-6.36-36-5.84-34.77L-5.84-34.77Q-3.73-29.99-2.21-25.19Q-0.70-20.39 0.49-15.61L0.49-15.61Q0.91-14.10 1.30-12.59L1.30-12.59Q2.57-8.05 3.60-3.53Q4.64 0.98 5.63 5.48L5.63 5.48Q5.66 5.77 5.73 6.05L5.73 6.05Q6.15 8.16 6.84 8.35Q7.52 8.54 8.21 7.28Q8.89 6.01 9.69 3.76Q10.48 1.51 11.27-1.27Q12.06-4.04 12.76-6.89Q13.46-9.74 13.99-12.20L13.99-12.20Q14.59-14.77 15.01-16.38L15.01-16.38Q15.19-17.19 14.91-18.07L14.91-18.07Q14.91-18.28 14.77-18.53L14.77-18.53Q13.89-23.03 13.61-27.42Q13.32-31.82 14.10-36.04L14.10-36.04Q13.99-36.07 14.10-36.11L14.10-36.11Q14.20-36.91 14.41-37.69Q14.63-38.46 15.12-39.13L15.12-39.13Q16.38-40.75 18.95-40.25L18.95-40.25Q21.09-39.83 22.01-37.48L22.01-37.48Q22.78-35.33 22.38-31.97Q21.97-28.62 21.11-25.24Q20.25-21.87 19.55-19.65L19.55-19.65Q19.44-19.34 19.41-19.05L19.41-19.05Q18.95-17.44 19.35-15.06Q19.76-12.69 21.02-10.93L21.02-10.93Q22.08-9.56 23.34-9.35Q24.61-9.14 25.80-9.63Q27-10.13 27.88-10.90Q28.76-11.67 29.14-12.27L29.14-12.27Q29.92-13.50 30.45-14.27L30.45-14.27Q30.94-14.84 31.29-15.43Q31.64-16.03 31.99-16.88L31.99-16.88Q32.13-17.19 32.31-17.26Q32.48-17.33 32.70-17.30ZM18.32-38.36L18.32-38.36Q17.54-38.74 17.12-37.90Q16.70-37.05 16.56-35.42Q16.42-33.79 16.44-31.83Q16.45-29.88 16.56-28.04Q16.66-26.19 16.80-24.93L16.80-24.93Q17.89-26.61 18.56-29.29Q19.23-31.96 19.23-34.51Q19.23-37.05 18.32-38.36Z"></path></svg></g><defs><filter id="05230914-3f29-4800-a83c-f5d0ce5b5e1a"><feGaussianBlur in="SourceGraphic" stdDeviation="1.26"></feGaussianBlur><feComponentTransfer><feFuncA type="discrete" tableValues="0 1 1 1 1 1 1 1 1 1 1 1 1 1 0"></feFuncA></feComponentTransfer></filter></defs></mask><rect v-gra="id" width="72" height="72" transform="translate(-6, -6)" style="pointer-events:none;" fill="url(#YZxJ3ydFTUKCYZgCkx9ns)"></rect></svg> <defs><filter id="colors7522845276"><feColorMatrix type="matrix" values="0 0 0 0 0.1015625  0 0 0 0 0.1015625  0 0 0 0 0.1015625  0 0 0 1 0" class="icon-feColorMatrix "></feColorMatrix></filter> <filter id="colorsf4459931417"><feColorMatrix type="matrix" values="0 0 0 0 0.99609375  0 0 0 0 0.99609375  0 0 0 0 0.99609375  0 0 0 1 0" class="icon-fecolormatrix"></feColorMatrix></filter> <filter id="colorsb2808961818"><feColorMatrix type="matrix" values="0 0 0 0 0  0 0 0 0 0  0 0 0 0 0  0 0 0 1 0" class="icon-fecolormatrix"></feColorMatrix></filter></defs></g><defs v-gra="od"></defs><defs v-gra="id"><filter id="52755aa7-fd67-4e70-af0c-b8c79caa692f" filterUnits="userSpaceOnUse"><feColorMatrix type="matrix" values="0 0 0 0 0.99609375  0 0 0 0 0.99609375  0 0 0 0 0.99609375  0 0 0 1 0"></feColorMatrix></filter><linearGradient x1="0" y1="1" x2="0" y2="0" id="YZxJ3ydFTUKCYZgCkx9ns"><stop offset="0%" stop-color="#fa709a"></stop><stop offset="100%" stop-color="#ffe13f"></stop></linearGradient><filter id="42443b3f1de60f6b6fd3b6a9844b4764" filterUnits="objectBoundingBox"><feColorMatrix type="matrix" values="0 0 0 0 0.99609375  0 0 0 0 0.99609375  0 0 0 0 0.99609375  0 0 0 1 0"></feColorMatrix></filter></defs><mask v-gra="im" id="3c01101a-fdb2-4617-9e9a-9d4664d75baa"><svg viewBox="0 0 60 60" x="0" y="0" width="71" height="71" class="image-svg-svg bn" style="overflow: visible;" filter="url(#52755aa7-fd67-4e70-af0c-b8c79caa692f)"><g hollow-target="iconBnOutline"><g mask="url(#22b00dda-7178-4530-933a-7acf97a2c400)"><svg xmlns="http://www.w3.org/2000/svg" xmlns:xlink="http://www.w3.org/1999/xlink" fill="#000000" version="1.1" x="0" y="0" viewBox="11.361 11.361 77.278 77.278" enable-background="new 0 0 100 100" xml:space="preserve" style="overflow: visible;" width="60" height="60" filtersec="colorsf4459931417"><g transform="scale(1, 1) skewX(0)"><path d="M50,11.361L50,11.361C28.66,11.361,11.361,28.66,11.361,50v0c0,21.34,17.299,38.639,38.639,38.639h0  c21.34,0,38.639-17.299,38.639-38.639v0C88.639,28.66,71.34,11.361,50,11.361z M50,82.279c-17.799,0-32.279-14.48-32.279-32.279  c0-17.799,14.48-32.279,32.279-32.279c17.799,0,32.279,14.48,32.279,32.279C82.279,67.799,67.799,82.279,50,82.279z"></path></g><defs><filter id="3z8KA40uZSAekErcotL51"><feColorMatrix type="matrix" values="0 0 0 0 0.1015625  0 0 0 0 0.1015625  0 0 0 0 0.1015625  0 0 0 1 0"></feColorMatrix></filter></defs></svg></g> <g><svg xmlns="http://www.w3.org/2000/svg" xmlns:xlink="http://www.w3.org/1999/xlink" viewBox="0 0 44.29591444672131 52.3584375" width="42" height="42" x="9" y="9" class="image-svg-letter"><path transform="translate(11.167008196721312 40.36875)" d="M32.70-17.30L32.70-17.30Q32.70-17.30 32.73-17.30L32.73-17.30Q32.87-17.30 32.98-17.28Q33.08-17.26 33.12-17.17Q33.15-17.09 33.08-16.88L33.08-16.88Q32.63-15.75 31.80-14.27Q30.97-12.80 29.83-11.34Q28.69-9.88 27.33-8.79Q25.98-7.70 24.38-7.38Q22.78-7.07 21.09-7.89Q19.41-8.72 17.54-11.04L17.54-11.04Q17.47-10.27 17.23-9.49L17.23-9.49Q17.05-9.04 16.95-8.68L16.95-8.68Q16.80-8.09 16.66-7.49L16.66-7.49Q15.89-4.43 15.08-1.41Q14.27 1.62 13.08 4.50L13.08 4.50Q12.59 5.77 12.01 6.96Q11.43 8.16 10.72 9.28L10.72 9.28Q10.05 10.37 9.04 11.18L9.04 11.18Q7.77 12.02 6.29 11.99Q4.82 11.95 3.53 11.14Q2.25 10.34 1.51 8.89L1.51 8.89Q0.25 6.15-0.53 3.39Q-1.30 0.63-1.93-2.14L-1.93-2.14Q-1.97-2.21-1.93-2.29L-1.93-2.29Q-2.07-2.78-2.25-3.27L-2.25-3.27Q-4.01-10.93-5.92-18.58Q-7.84-26.23-10.16-33.89L-10.16-33.89Q-10.48-34.91-10.72-35.89L-10.72-35.89Q-10.93-36.46-11.11-36.98L-11.11-36.98Q-11.46-38.43-9.67-38.50L-9.67-38.50Q-7.84-38.57-7.03-37.16L-7.03-37.16Q-6.36-36-5.84-34.77L-5.84-34.77Q-3.73-29.99-2.21-25.19Q-0.70-20.39 0.49-15.61L0.49-15.61Q0.91-14.10 1.30-12.59L1.30-12.59Q2.57-8.05 3.60-3.53Q4.64 0.98 5.63 5.48L5.63 5.48Q5.66 5.77 5.73 6.05L5.73 6.05Q6.15 8.16 6.84 8.35Q7.52 8.54 8.21 7.28Q8.89 6.01 9.69 3.76Q10.48 1.51 11.27-1.27Q12.06-4.04 12.76-6.89Q13.46-9.74 13.99-12.20L13.99-12.20Q14.59-14.77 15.01-16.38L15.01-16.38Q15.19-17.19 14.91-18.07L14.91-18.07Q14.91-18.28 14.77-18.53L14.77-18.53Q13.89-23.03 13.61-27.42Q13.32-31.82 14.10-36.04L14.10-36.04Q13.99-36.07 14.10-36.11L14.10-36.11Q14.20-36.91 14.41-37.69Q14.63-38.46 15.12-39.13L15.12-39.13Q16.38-40.75 18.95-40.25L18.95-40.25Q21.09-39.83 22.01-37.48L22.01-37.48Q22.78-35.33 22.38-31.97Q21.97-28.62 21.11-25.24Q20.25-21.87 19.55-19.65L19.55-19.65Q19.44-19.34 19.41-19.05L19.41-19.05Q18.95-17.44 19.35-15.06Q19.76-12.69 21.02-10.93L21.02-10.93Q22.08-9.56 23.34-9.35Q24.61-9.14 25.80-9.63Q27-10.13 27.88-10.90Q28.76-11.67 29.14-12.27L29.14-12.27Q29.92-13.50 30.45-14.27L30.45-14.27Q30.94-14.84 31.29-15.43Q31.64-16.03 31.99-16.88L31.99-16.88Q32.13-17.19 32.31-17.26Q32.48-17.33 32.70-17.30ZM18.32-38.36L18.32-38.36Q17.54-38.74 17.12-37.90Q16.70-37.05 16.56-35.42Q16.42-33.79 16.44-31.83Q16.45-29.88 16.56-28.04Q16.66-26.19 16.80-24.93L16.80-24.93Q17.89-26.61 18.56-29.29Q19.23-31.96 19.23-34.51Q19.23-37.05 18.32-38.36Z"></path></svg></g></g><mask id="22b00dda-7178-4530-933a-7acf97a2c400"><g fill="white"><svg xmlns="http://www.w3.org/2000/svg" xmlns:xlink="http://www.w3.org/1999/xlink" version="1.1" x="0" y="0" viewBox="11.361 11.361 77.278 77.278" enable-background="new 0 0 100 100" xml:space="preserve" style="overflow: visible;" width="60" height="60" filtersec="colorsf4459931417"><g transform="scale(1, 1) skewX(0)"><path d="M50,11.361L50,11.361C28.66,11.361,11.361,28.66,11.361,50v0c0,21.34,17.299,38.639,38.639,38.639h0  c21.34,0,38.639-17.299,38.639-38.639v0C88.639,28.66,71.34,11.361,50,11.361z M50,82.279c-17.799,0-32.279-14.48-32.279-32.279  c0-17.799,14.48-32.279,32.279-32.279c17.799,0,32.279,14.48,32.279,32.279C82.279,67.799,67.799,82.279,50,82.279z"></path></g><defs></defs></svg></g> <g fill="black"><svg xmlns="http://www.w3.org/2000/svg" xmlns:xlink="http://www.w3.org/1999/xlink" viewBox="0 0 44.29591444672131 52.3584375" width="42" height="42" x="9" y="9" class="image-svg-letter"><path transform="translate(11.167008196721312 40.36875)" d="M32.70-17.30L32.70-17.30Q32.70-17.30 32.73-17.30L32.73-17.30Q32.87-17.30 32.98-17.28Q33.08-17.26 33.12-17.17Q33.15-17.09 33.08-16.88L33.08-16.88Q32.63-15.75 31.80-14.27Q30.97-12.80 29.83-11.34Q28.69-9.88 27.33-8.79Q25.98-7.70 24.38-7.38Q22.78-7.07 21.09-7.89Q19.41-8.72 17.54-11.04L17.54-11.04Q17.47-10.27 17.23-9.49L17.23-9.49Q17.05-9.04 16.95-8.68L16.95-8.68Q16.80-8.09 16.66-7.49L16.66-7.49Q15.89-4.43 15.08-1.41Q14.27 1.62 13.08 4.50L13.08 4.50Q12.59 5.77 12.01 6.96Q11.43 8.16 10.72 9.28L10.72 9.28Q10.05 10.37 9.04 11.18L9.04 11.18Q7.77 12.02 6.29 11.99Q4.82 11.95 3.53 11.14Q2.25 10.34 1.51 8.89L1.51 8.89Q0.25 6.15-0.53 3.39Q-1.30 0.63-1.93-2.14L-1.93-2.14Q-1.97-2.21-1.93-2.29L-1.93-2.29Q-2.07-2.78-2.25-3.27L-2.25-3.27Q-4.01-10.93-5.92-18.58Q-7.84-26.23-10.16-33.89L-10.16-33.89Q-10.48-34.91-10.72-35.89L-10.72-35.89Q-10.93-36.46-11.11-36.98L-11.11-36.98Q-11.46-38.43-9.67-38.50L-9.67-38.50Q-7.84-38.57-7.03-37.16L-7.03-37.16Q-6.36-36-5.84-34.77L-5.84-34.77Q-3.73-29.99-2.21-25.19Q-0.70-20.39 0.49-15.61L0.49-15.61Q0.91-14.10 1.30-12.59L1.30-12.59Q2.57-8.05 3.60-3.53Q4.64 0.98 5.63 5.48L5.63 5.48Q5.66 5.77 5.73 6.05L5.73 6.05Q6.15 8.16 6.84 8.35Q7.52 8.54 8.21 7.28Q8.89 6.01 9.69 3.76Q10.48 1.51 11.27-1.27Q12.06-4.04 12.76-6.89Q13.46-9.74 13.99-12.20L13.99-12.20Q14.59-14.77 15.01-16.38L15.01-16.38Q15.19-17.19 14.91-18.07L14.91-18.07Q14.91-18.28 14.77-18.53L14.77-18.53Q13.89-23.03 13.61-27.42Q13.32-31.82 14.10-36.04L14.10-36.04Q13.99-36.07 14.10-36.11L14.10-36.11Q14.20-36.91 14.41-37.69Q14.63-38.46 15.12-39.13L15.12-39.13Q16.38-40.75 18.95-40.25L18.95-40.25Q21.09-39.83 22.01-37.48L22.01-37.48Q22.78-35.33 22.38-31.97Q21.97-28.62 21.11-25.24Q20.25-21.87 19.55-19.65L19.55-19.65Q19.44-19.34 19.41-19.05L19.41-19.05Q18.95-17.44 19.35-15.06Q19.76-12.69 21.02-10.93L21.02-10.93Q22.08-9.56 23.34-9.35Q24.61-9.14 25.80-9.63Q27-10.13 27.88-10.90Q28.76-11.67 29.14-12.27L29.14-12.27Q29.92-13.50 30.45-14.27L30.45-14.27Q30.94-14.84 31.29-15.43Q31.64-16.03 31.99-16.88L31.99-16.88Q32.13-17.19 32.31-17.26Q32.48-17.33 32.70-17.30ZM18.32-38.36L18.32-38.36Q17.54-38.74 17.12-37.90Q16.70-37.05 16.56-35.42Q16.42-33.79 16.44-31.83Q16.45-29.88 16.56-28.04Q16.66-26.19 16.80-24.93L16.80-24.93Q17.89-26.61 18.56-29.29Q19.23-31.96 19.23-34.51Q19.23-37.05 18.32-38.36Z"></path></svg></g><defs><filter id="05230914-3f29-4800-a83c-f5d0ce5b5e1a"><feGaussianBlur in="SourceGraphic" stdDeviation="1.26"></feGaussianBlur><feComponentTransfer><feFuncA type="discrete" tableValues="0 1 1 1 1 1 1 1 1 1 1 1 1 1 0"></feFuncA></feComponentTransfer></filter></defs></mask></svg></mask></g></svg>